<svg width="2545" height="226" viewBox="0 0 2545 226" fill="none" xmlns="http://www.w3.org/2000/svg">
<path d="M22.4625 185.105C22.4625 203.861 19.3855 209.703 7.69265 210.626L4.61559 210.933C1.84624 210.933 0 213.086 0 216.468C0 220.465 1.53853 221.695 7.38494 221.695H151.084C164.93 221.695 171.085 218.928 177.546 210.318C184.008 202.016 189.547 192.177 194.162 180.8C195.086 179.263 195.701 177.418 195.701 176.188C195.701 173.728 194.162 172.19 192.008 172.19C190.47 172.19 188.316 173.728 185.547 176.495C173.238 191.254 155.392 201.709 133.544 206.629C120.313 209.396 104.62 211.241 86.1577 211.241C67.3876 211.241 59.0795 209.396 54.464 204.476C50.4638 199.556 49.5407 193.407 49.5407 173.42L49.233 36.5905C49.233 18.1415 53.2331 11.0694 66.4645 11.0694H68.3107C70.7724 10.7619 72.9263 8.60952 72.9263 5.2272C72.9263 1.84489 70.4647 0 65.5414 0H7.38494C1.53853 0 0 1.53741 0 5.2272C0 8.60952 1.53853 10.7619 4.61559 11.0694H6.15412C18.1547 11.0694 22.4625 18.1415 22.4625 36.5905V175.265V185.105Z" fill="white"/>
<path d="M231.782 11.3769C241.013 12.2993 245.629 20.6014 245.629 36.5905V185.105C245.629 204.169 242.859 209.703 229.013 210.626L227.782 210.933C225.012 210.933 223.166 213.393 223.166 216.776C223.166 220.465 224.705 221.695 230.551 221.695H288.707C293.323 221.695 295.785 220.158 295.785 216.776C295.785 213.393 293.939 210.933 291.477 210.933L289.323 210.626C276.092 209.088 272.707 203.861 272.707 185.105V36.5905C272.707 17.834 276.707 11.0694 289.323 11.0694H291.477C293.631 10.7619 295.785 8.60952 295.785 5.2272C295.785 1.22993 294.246 0 288.4 0H230.243C224.397 0 222.858 1.22993 222.858 4.91972C222.858 8.30204 224.397 10.1469 227.474 10.7619L228.089 11.0694L231.782 11.3769Z" fill="white"/>
<path d="M420.634 185.105C420.634 204.476 416.326 209.088 401.249 210.626L399.71 210.933C397.248 210.933 395.094 213.393 395.094 216.776C395.094 220.158 397.556 221.695 402.479 221.695H464.636C469.559 221.695 472.021 220.158 472.021 216.776C472.021 213.393 469.867 210.933 467.405 210.933L465.867 210.626C456.02 209.703 452.02 207.859 449.558 202.016C447.404 197.404 447.404 194.022 447.404 185.105V27.6735C447.404 12.9143 451.405 9.53196 469.867 9.53196C484.329 9.53196 496.637 11.6844 504.945 15.0667C514.792 18.7565 524.946 26.136 529.562 33.5156C533.254 39.9728 533.87 40.5877 536.024 40.5877C538.485 40.5877 540.639 38.7429 540.639 37.2054V35.3605L538.793 30.1333L532.639 9.22448L530.793 3.68979C529.87 1.53741 528.023 0.307479 524.946 0H517.561H348.323C340.63 0 339.092 0.307479 337.553 1.53741C336.015 2.76735 335.707 2.76735 334.169 9.83946L329.553 29.8259L328.015 35.9755C327.707 36.5905 327.707 37.2054 327.707 37.8204C327.707 39.0503 328.322 39.9728 329.861 40.5877C330.784 40.8952 331.399 41.2027 332.015 41.2027C332.938 41.2027 333.861 40.2803 335.092 38.7429C335.092 38.4354 336.63 36.898 338.169 34.1306C350.169 16.9116 368.324 9.83946 399.402 9.83946C418.172 9.83946 420.634 12.2993 420.634 28.2884V177.11V185.105Z" fill="white"/>
<path d="M655.813 185.105C655.813 204.476 651.505 209.088 636.427 210.626L634.889 210.933C632.427 210.933 630.273 213.393 630.273 216.776C630.273 220.158 632.735 221.695 637.658 221.695H699.815C704.738 221.695 707.2 220.158 707.2 216.776C707.2 213.393 705.046 210.933 702.584 210.933L701.045 210.626C691.199 209.703 687.199 207.859 684.737 202.016C682.583 197.404 682.583 194.022 682.583 185.105V27.6735C682.583 12.9143 686.583 9.53196 705.046 9.53196C719.508 9.53196 731.816 11.6844 740.124 15.0667C749.971 18.7565 760.125 26.136 764.741 33.5156C768.433 39.9728 769.048 40.5877 771.202 40.5877C773.664 40.5877 775.818 38.7429 775.818 37.2054V35.3605L773.972 30.1333L767.818 9.22448L765.971 3.68979C765.048 1.53741 763.202 0.307479 760.125 0H752.74H583.502C575.809 0 574.271 0.307479 572.732 1.53741C571.194 2.76735 570.886 2.76735 569.347 9.83946L564.732 29.8259L563.193 35.9755C562.886 36.5905 562.885 37.2054 562.885 37.8204C562.885 39.0503 563.501 39.9728 565.039 40.5877C565.963 40.8952 566.578 41.2027 567.193 41.2027C568.117 41.2027 569.04 40.2803 570.271 38.7429C570.271 38.4354 571.809 36.898 573.348 34.1306C585.348 16.9116 603.503 9.83946 634.581 9.83946C653.351 9.83946 655.813 12.2993 655.813 28.2884V177.11V185.105Z" fill="white"/>
<path d="M829.758 185.105C829.758 203.861 826.681 209.703 814.988 210.626L811.911 210.933C809.142 210.933 807.295 213.086 807.295 216.468C807.295 220.465 808.834 221.695 814.68 221.695H958.379C972.226 221.695 978.38 218.928 984.842 210.318C991.303 202.016 996.842 192.177 1001.46 180.8C1002.38 179.263 1003 177.418 1003 176.188C1003 173.728 1001.46 172.19 999.304 172.19C997.765 172.19 995.611 173.728 992.842 176.495C980.534 191.254 962.687 201.709 940.84 206.629C927.608 209.396 911.915 211.241 893.453 211.241C874.683 211.241 866.375 209.396 861.759 204.476C857.759 199.556 856.836 193.407 856.836 173.42L856.528 36.5905C856.528 18.1415 860.528 11.0694 873.76 11.0694H875.606C878.068 10.7619 880.222 8.60952 880.222 5.2272C880.222 1.84489 877.76 0 872.837 0H814.68C808.834 0 807.295 1.53741 807.295 5.2272C807.295 8.60952 808.834 10.7619 811.911 11.0694H813.449C825.45 11.0694 829.758 18.1415 829.758 36.5905V175.265V185.105Z" fill="white"/>
<path d="M1137.24 111.616C1161.54 111.616 1169.54 115.921 1172.93 130.988C1174.16 137.137 1174.78 138.675 1178.16 138.675C1181.55 138.675 1183.39 137.137 1183.39 134.37V131.603C1182.47 125.146 1181.85 113.461 1181.85 103.622C1181.85 95.3197 1182.16 88.2476 1183.08 83.0204C1183.08 82.098 1183.39 81.1755 1183.39 79.9456C1183.39 77.7932 1181.55 76.5633 1177.54 76.5633C1176.01 76.5633 1175.08 77.4857 1174.47 79.3306L1172.93 84.8653C1168.93 98.702 1163.08 101.469 1137.54 101.469H1079.69V35.9755C1079.69 22.1388 1080.31 18.449 1083.69 15.0667C1087.69 11.0694 1093.54 9.83946 1114.16 9.83946H1134.77C1175.7 9.83946 1197.85 16.2966 1211.08 32.5932C1212.93 34.7456 1214.47 35.9755 1215.7 35.9755C1218.47 35.9755 1219.7 34.7456 1219.7 32.5932C1219.7 31.6707 1219.39 29.8259 1218.47 27.366L1212.93 8.60952C1210.78 1.53741 1209.85 0 1206.16 0H1198.78H1037.54C1032.62 0 1030.15 1.84489 1030.15 5.2272C1030.15 8.60952 1031.69 10.7619 1034.77 11.0694H1037.23C1048.62 11.0694 1052.62 18.1415 1052.62 36.5905V185.105C1052.62 202.631 1048.31 209.396 1037.23 210.626L1034.77 210.933C1032 210.933 1030.15 213.393 1030.15 216.776C1030.15 220.465 1031.69 221.695 1037.54 221.695H1188.93C1209.55 221.695 1215.39 218.928 1223.7 206.321C1228.93 198.019 1233.55 188.795 1236.93 179.263C1237.24 178.34 1237.55 177.418 1237.55 176.188C1237.55 174.035 1236.62 172.805 1234.78 172.805C1232.93 172.805 1231.09 174.035 1229.24 176.803C1221.55 187.872 1207.08 198.634 1194.47 203.554C1179.7 209.396 1161.54 211.241 1133.24 211.241H1111.39C1094.46 211.241 1086.46 209.396 1083.08 204.784C1080 201.709 1079.69 197.097 1079.69 180.185V111.616H1137.24Z" fill="white"/>
<path d="M1441.87 128.22C1461.87 131.603 1470.79 132.218 1488.64 132.218C1552.64 132.218 1586.8 109.771 1586.8 66.7238C1586.8 24.9061 1552.03 0 1493.25 0H1400.02C1394.17 0 1392.63 1.22993 1392.63 5.2272C1392.63 8.60952 1394.17 10.7619 1397.25 11.0694H1399.4C1411.4 11.0694 1414.79 17.834 1414.79 36.5905V185.105C1414.79 203.861 1411.1 209.088 1399.71 210.626L1397.25 210.933C1394.48 210.933 1392.63 213.701 1392.63 216.468C1392.63 220.465 1394.17 221.695 1400.02 221.695H1462.18C1467.1 221.695 1469.56 220.158 1469.56 216.776C1469.56 212.778 1468.02 210.933 1464.64 210.933L1463.41 210.626C1451.1 209.396 1447.41 207.859 1444.94 201.709C1442.48 197.097 1441.87 193.407 1441.87 185.105V128.22ZM1445.25 16.2966C1448.94 12.2993 1456.02 10.7619 1470.79 10.7619C1499.72 10.7619 1512.64 12.9143 1527.41 21.2163C1545.87 31.3633 1555.41 46.7374 1555.41 66.4163C1555.41 99.932 1528.64 120.226 1483.1 120.226C1470.18 120.226 1460.02 118.996 1452.33 116.229C1443.71 113.461 1441.87 109.464 1441.87 93.7823V33.5156C1441.87 22.1388 1442.48 19.6789 1445.25 16.2966Z" fill="white"/>
<path d="M1854.91 11.0694C1857.68 10.1469 1859.21 7.99455 1859.21 5.2272C1859.21 1.22993 1857.98 0 1852.14 0H1809.98C1805.37 0 1802.9 1.53741 1802.9 4.91972C1802.9 8.60952 1804.44 10.7619 1807.52 11.0694H1809.06C1821.67 11.0694 1825.98 18.1415 1825.98 36.5905V136.83C1825.98 188.18 1800.44 214.316 1751.21 214.316C1717.67 214.316 1690.59 200.171 1681.67 177.725C1678.28 169.116 1677.36 161.736 1677.36 146.669V36.5905C1677.36 18.1415 1681.05 11.0694 1692.44 11.0694H1695.21C1698.59 10.7619 1700.13 8.60952 1700.13 5.2272C1700.13 1.84489 1697.67 0 1692.75 0H1634.9C1629.05 0 1627.51 1.22993 1627.51 5.2272C1627.51 8.60952 1629.05 10.7619 1632.13 11.0694H1633.67C1645.97 11.0694 1649.97 18.1415 1649.97 36.5905V146.977C1649.97 170.961 1651.82 179.878 1657.67 190.639C1662.28 198.634 1669.05 205.091 1677.98 210.318C1695.82 220.773 1717.67 226 1743.82 226C1781.06 226 1808.14 214.623 1823.21 192.484C1833.06 177.725 1836.14 164.503 1836.14 136.522V36.5905C1836.14 20.2939 1840.44 13.2218 1850.29 11.6844L1853.98 11.0694H1854.91Z" fill="white"/>
<path d="M2007.63 111.616C2031.02 111.616 2039.64 116.536 2044.56 131.603C2046.1 136.83 2047.33 138.367 2049.79 138.367C2053.48 138.367 2055.33 137.137 2055.33 134.985C2055.33 133.448 2055.02 131.603 2054.41 129.758C2053.18 123.916 2052.56 117.459 2052.56 109.771C2052.56 102.084 2053.18 89.785 2054.41 80.868V79.0231C2054.41 75.9483 2052.87 74.4109 2049.48 74.4109C2046.1 74.4109 2045.79 75.6408 2044.56 82.098C2043.64 87.3252 2039.64 93.7823 2035.64 96.2422C2029.79 100.239 2022.71 101.777 2007.63 101.777H1950.09V37.8204C1950.09 11.3769 1951.94 9.83946 1981.48 9.83946H1983.33L2006.4 10.1469C2032.56 10.4544 2048.56 11.3769 2060.56 14.1442C2071.33 16.6041 2080.87 23.3687 2086.71 31.6707C2088.87 34.4381 2090.72 35.668 2091.95 35.668C2094.1 35.668 2095.02 34.4381 2095.02 31.6707C2095.02 30.7483 2095.02 30.1333 2094.72 29.8259L2093.79 25.5211L2089.18 8.917C2087.02 1.84489 2085.79 0 2082.1 0H2074.71H1907.94C1903.32 0 1900.86 1.84489 1900.86 5.2272C1900.86 8.60952 1902.4 10.7619 1905.17 11.0694H1907.32C1919.32 11.0694 1923.32 18.1415 1923.32 36.5905V185.105C1923.32 203.246 1919.02 209.703 1906.71 210.626L1905.17 210.933C1902.4 210.933 1900.55 213.393 1900.55 216.776C1900.55 220.465 1902.09 221.695 1907.94 221.695H1969.79C1974.71 221.695 1977.17 220.158 1977.17 216.776C1977.17 213.393 1975.63 211.241 1972.25 210.933L1971.02 210.626C1954.71 209.088 1950.4 204.169 1950.4 185.105V111.616H2007.63Z" fill="white"/>
<path d="M2225.08 111.616C2248.47 111.616 2257.09 116.536 2262.01 131.603C2263.55 136.83 2264.78 138.367 2267.24 138.367C2270.93 138.367 2272.78 137.137 2272.78 134.985C2272.78 133.448 2272.47 131.603 2271.86 129.758C2270.62 123.916 2270.01 117.459 2270.01 109.771C2270.01 102.084 2270.62 89.785 2271.86 80.868V79.0231C2271.86 75.9483 2270.32 74.4109 2266.93 74.4109C2263.55 74.4109 2263.24 75.6408 2262.01 82.098C2261.09 87.3252 2257.09 93.7823 2253.09 96.2422C2247.24 100.239 2240.16 101.777 2225.08 101.777H2167.54V37.8204C2167.54 11.3769 2169.39 9.83946 2198.93 9.83946H2200.78L2223.85 10.1469C2250.01 10.4544 2266.01 11.3769 2278.01 14.1442C2288.78 16.6041 2298.32 23.3687 2304.16 31.6707C2306.32 34.4381 2308.16 35.668 2309.4 35.668C2311.55 35.668 2312.47 34.4381 2312.47 31.6707C2312.47 30.7483 2312.47 30.1333 2312.16 29.8259L2311.24 25.5211L2306.63 8.917C2304.47 1.84489 2303.24 0 2299.55 0H2292.16H2125.39C2120.77 0 2118.31 1.84489 2118.31 5.2272C2118.31 8.60952 2119.85 10.7619 2122.62 11.0694H2124.77C2136.77 11.0694 2140.77 18.1415 2140.77 36.5905V185.105C2140.77 203.246 2136.46 209.703 2124.16 210.626L2122.62 210.933C2119.85 210.933 2118 213.393 2118 216.776C2118 220.465 2119.54 221.695 2125.39 221.695H2187.24C2192.16 221.695 2194.62 220.158 2194.62 216.776C2194.62 213.393 2193.08 211.241 2189.7 210.933L2188.47 210.626C2172.16 209.088 2167.85 204.169 2167.85 185.105V111.616H2225.08Z" fill="white"/>
<path d="M2423.46 185.105C2423.46 197.712 2420.99 205.399 2416.07 208.166C2413.61 209.703 2412.07 209.703 2405.61 210.626L2404.38 210.933C2401.3 211.241 2399.76 213.393 2399.76 216.776C2399.76 220.158 2402.22 221.695 2406.84 221.695H2469.92C2474.54 221.695 2476.69 220.158 2476.69 216.776C2476.69 213.393 2475.15 210.933 2472.38 210.933L2471.15 210.626C2459.77 209.703 2455.76 207.859 2453.3 202.016C2451.15 197.404 2450.53 192.792 2450.53 185.105V113.461L2508.08 36.5905L2513.61 28.9034C2521.92 17.5265 2530.23 11.9918 2539.15 11.0694H2540.38C2542.85 10.7619 2545 8.60952 2545 5.2272C2545 1.84489 2542.54 0 2537.61 0H2494.84C2489 0 2487.46 1.53741 2487.46 5.2272C2487.46 8.60952 2488.69 10.7619 2492.07 11.0694H2493C2503.15 11.9918 2505 13.2218 2505 17.834C2505 21.8313 2502.23 27.0585 2495.15 36.5905L2447.76 99.0095L2397.61 36.5905C2389.92 26.751 2385.92 19.9864 2385.92 16.6041C2385.92 12.9143 2388.38 11.0694 2395.76 11.0694H2396.99C2400.07 10.7619 2401.61 8.60952 2401.61 5.2272C2401.61 1.53741 2400.07 0 2394.22 0H2329.3C2324.68 0 2322.22 1.84489 2322.22 5.2272C2322.22 8.60952 2323.76 10.7619 2326.84 11.0694H2328.07C2340.68 12.9143 2347.76 17.219 2363.76 36.5905L2423.46 110.386V185.105Z" fill="white"/>
</svg>
